<svg width="380" height="68" viewBox="0 0 380 68" fill="none" xmlns="http://www.w3.org/2000/svg">
<path d="M0 34C0 15.2223 15.2223 0 34 0H346C364.778 0 380 15.2223 380 34V34C380 52.7777 364.778 68 346 68H34C15.2223 68 0 52.7777 0 34V34Z" fill="#E2E2E2"/>
<g clip-path="url(#clip0_2_1504)">
<path d="M72.9535 25H54.9535C53.2995 25 51.9535 26.346 51.9535 28V41H58.8765L62.6255 44.157C63.0075 44.496 63.4865 44.664 63.9625 44.664C64.4305 44.664 64.8935 44.501 65.2545 44.18L69.1025 41H75.9545V28C75.9545 26.346 74.6075 25 72.9535 25ZM59.6205 32.509L57.7885 33.57L58.5255 35.809L58.1045 36.1L56.2935 34.699L54.4735 36.106L54.0735 35.804L54.7975 33.539L52.9535 32.513V32H55.3695L56.0235 29.499H56.5635L57.2165 32H59.6195L59.6205 32.509ZM67.2875 32.509L65.4555 33.57L66.1925 35.809L65.7715 36.1L63.9605 34.699L62.1405 36.106L61.7405 35.804L62.4645 33.539L60.6205 32.513V32H63.0365L63.6905 29.499H64.2305L64.8835 32H67.2865L67.2875 32.509ZM74.9545 32.509L73.1225 33.57L73.8595 35.809L73.4385 36.1L71.6275 34.699L69.8075 36.106L69.4075 35.804L70.1315 33.539L68.2875 32.513V32H70.7035L71.3575 29.499H71.8975L72.5505 32H74.9535L74.9545 32.509Z" fill="#19415A"/>
</g>
<path d="M95.1954 39.644C93.8754 39.644 92.7654 39.374 91.8654 38.834C90.9654 38.282 90.2874 37.52 89.8314 36.548C89.3754 35.576 89.1474 34.448 89.1474 33.164C89.1474 31.88 89.3814 30.746 89.8494 29.762C90.3174 28.778 91.0014 28.01 91.9014 27.458C92.8014 26.894 93.8994 26.612 95.1954 26.612C96.1554 26.612 97.0014 26.774 97.7334 27.098C98.4654 27.422 99.0594 27.884 99.5154 28.484C99.9834 29.072 100.283 29.798 100.415 30.662H98.2374C98.0694 30.05 97.7274 29.57 97.2114 29.222C96.6954 28.874 96.0234 28.7 95.1954 28.7C94.2954 28.7 93.5694 28.91 93.0174 29.33C92.4654 29.75 92.0634 30.29 91.8114 30.95C91.5714 31.61 91.4514 32.318 91.4514 33.074C91.4514 33.854 91.5774 34.586 91.8294 35.27C92.0934 35.954 92.5074 36.506 93.0714 36.926C93.6354 37.346 94.3614 37.556 95.2494 37.556C95.8014 37.556 96.2814 37.478 96.6894 37.322C97.1094 37.166 97.4574 36.944 97.7334 36.656C98.0214 36.356 98.2194 36.008 98.3274 35.612H100.613C100.469 36.464 100.145 37.19 99.6414 37.79C99.1494 38.39 98.5194 38.852 97.7514 39.176C96.9954 39.488 96.1434 39.644 95.1954 39.644ZM102.286 39.5V26.774H104.482V39.5H102.286ZM106.61 39.5V30.014H108.806V39.5H106.61ZM107.708 28.916C107.288 28.916 106.952 28.79 106.7 28.538C106.448 28.286 106.322 27.956 106.322 27.548C106.322 27.152 106.454 26.828 106.718 26.576C106.982 26.312 107.312 26.18 107.708 26.18C108.092 26.18 108.422 26.306 108.698 26.558C108.974 26.81 109.112 27.14 109.112 27.548C109.112 27.956 108.98 28.286 108.716 28.538C108.452 28.79 108.116 28.916 107.708 28.916ZM115.111 39.626C114.127 39.626 113.299 39.428 112.627 39.032C111.955 38.624 111.445 38.054 111.097 37.322C110.749 36.59 110.575 35.744 110.575 34.784C110.575 33.824 110.755 32.978 111.115 32.246C111.475 31.502 112.003 30.92 112.699 30.5C113.395 30.08 114.241 29.87 115.237 29.87C115.969 29.87 116.617 29.996 117.181 30.248C117.757 30.5 118.219 30.872 118.567 31.364C118.927 31.844 119.155 32.444 119.251 33.164H117.091C116.947 32.708 116.707 32.378 116.371 32.174C116.047 31.958 115.657 31.85 115.201 31.85C114.589 31.85 114.103 32 113.743 32.3C113.395 32.588 113.143 32.954 112.987 33.398C112.831 33.842 112.753 34.304 112.753 34.784C112.753 35.288 112.837 35.762 113.005 36.206C113.173 36.638 113.431 36.986 113.779 37.25C114.139 37.514 114.601 37.646 115.165 37.646C115.621 37.646 116.029 37.544 116.389 37.34C116.761 37.136 117.001 36.806 117.109 36.35H119.341C119.257 37.082 119.011 37.694 118.603 38.186C118.207 38.666 117.703 39.026 117.091 39.266C116.479 39.506 115.819 39.626 115.111 39.626ZM120.989 39.5V26.774H123.185V33.812H124.553L127.055 30.014H129.521L126.443 34.532L129.773 39.5H127.217L124.679 35.738H123.185V39.5H120.989ZM136.185 39.5V26.774H138.435V32.21H144.375V26.774H146.607V39.5H144.375V34.262H138.435V39.5H136.185ZM153.345 39.626C152.361 39.626 151.521 39.422 150.825 39.014C150.141 38.606 149.619 38.042 149.259 37.322C148.911 36.59 148.737 35.744 148.737 34.784C148.737 33.824 148.917 32.978 149.277 32.246C149.649 31.502 150.177 30.92 150.861 30.5C151.557 30.08 152.391 29.87 153.363 29.87C154.083 29.87 154.713 30.002 155.253 30.266C155.793 30.518 156.243 30.866 156.603 31.31C156.975 31.754 157.251 32.258 157.431 32.822C157.611 33.386 157.695 33.98 157.683 34.604C157.671 34.748 157.659 34.892 157.647 35.036C157.635 35.168 157.617 35.312 157.593 35.468H150.933C150.969 35.888 151.077 36.272 151.257 36.62C151.449 36.968 151.713 37.244 152.049 37.448C152.397 37.652 152.829 37.754 153.345 37.754C153.645 37.754 153.933 37.718 154.209 37.646C154.485 37.562 154.725 37.442 154.929 37.286C155.145 37.13 155.289 36.932 155.361 36.692H157.557C157.401 37.376 157.113 37.934 156.693 38.366C156.273 38.798 155.769 39.116 155.181 39.32C154.605 39.524 153.993 39.626 153.345 39.626ZM150.969 33.83H155.541C155.541 33.434 155.451 33.074 155.271 32.75C155.091 32.426 154.833 32.174 154.497 31.994C154.173 31.802 153.777 31.706 153.309 31.706C152.805 31.706 152.385 31.808 152.049 32.012C151.713 32.216 151.455 32.48 151.275 32.804C151.095 33.128 150.993 33.47 150.969 33.83ZM159.433 39.5V30.014H161.431L161.557 31.256C161.797 30.896 162.067 30.62 162.367 30.428C162.679 30.224 163.009 30.08 163.357 29.996C163.717 29.912 164.077 29.87 164.437 29.87C164.569 29.87 164.689 29.87 164.797 29.87C164.917 29.87 165.013 29.876 165.085 29.888V31.976H164.509C163.885 31.976 163.357 32.096 162.925 32.336C162.493 32.576 162.169 32.918 161.953 33.362C161.737 33.806 161.629 34.352 161.629 35V39.5H159.433ZM170.448 39.626C169.464 39.626 168.624 39.422 167.928 39.014C167.244 38.606 166.722 38.042 166.362 37.322C166.014 36.59 165.84 35.744 165.84 34.784C165.84 33.824 166.02 32.978 166.38 32.246C166.752 31.502 167.28 30.92 167.964 30.5C168.66 30.08 169.494 29.87 170.466 29.87C171.186 29.87 171.816 30.002 172.356 30.266C172.896 30.518 173.346 30.866 173.706 31.31C174.078 31.754 174.354 32.258 174.534 32.822C174.714 33.386 174.798 33.98 174.786 34.604C174.774 34.748 174.762 34.892 174.75 35.036C174.738 35.168 174.72 35.312 174.696 35.468H168.036C168.072 35.888 168.18 36.272 168.36 36.62C168.552 36.968 168.816 37.244 169.152 37.448C169.5 37.652 169.932 37.754 170.448 37.754C170.748 37.754 171.036 37.718 171.312 37.646C171.588 37.562 171.828 37.442 172.032 37.286C172.248 37.13 172.392 36.932 172.464 36.692H174.66C174.504 37.376 174.216 37.934 173.796 38.366C173.376 38.798 172.872 39.116 172.284 39.32C171.708 39.524 171.096 39.626 170.448 39.626ZM168.072 33.83H172.644C172.644 33.434 172.554 33.074 172.374 32.75C172.194 32.426 171.936 32.174 171.6 31.994C171.276 31.802 170.88 31.706 170.412 31.706C169.908 31.706 169.488 31.808 169.152 32.012C168.816 32.216 168.558 32.48 168.378 32.804C168.198 33.128 168.096 33.47 168.072 33.83ZM185.326 39.608C184.282 39.608 183.52 39.32 183.04 38.744C182.56 38.168 182.32 37.37 182.32 36.35V31.958H180.862V30.014H182.32V27.35H184.516V30.014H187.396V31.958H184.516V35.936C184.516 36.248 184.552 36.53 184.624 36.782C184.696 37.034 184.828 37.232 185.02 37.376C185.212 37.52 185.476 37.598 185.812 37.61C186.1 37.61 186.346 37.562 186.55 37.466C186.754 37.37 186.922 37.262 187.054 37.142L187.792 38.816C187.564 39.008 187.306 39.164 187.018 39.284C186.742 39.404 186.46 39.488 186.172 39.536C185.884 39.584 185.602 39.608 185.326 39.608ZM193.32 39.626C192.348 39.626 191.508 39.428 190.8 39.032C190.104 38.636 189.564 38.072 189.18 37.34C188.808 36.608 188.622 35.75 188.622 34.766C188.622 33.77 188.814 32.912 189.198 32.192C189.582 31.46 190.122 30.89 190.818 30.482C191.514 30.074 192.348 29.87 193.32 29.87C194.28 29.87 195.108 30.074 195.804 30.482C196.5 30.89 197.034 31.466 197.406 32.21C197.778 32.942 197.964 33.806 197.964 34.802C197.964 35.774 197.778 36.626 197.406 37.358C197.046 38.078 196.518 38.636 195.822 39.032C195.126 39.428 194.292 39.626 193.32 39.626ZM193.302 37.628C193.902 37.628 194.382 37.496 194.742 37.232C195.114 36.968 195.384 36.62 195.552 36.188C195.72 35.756 195.804 35.288 195.804 34.784C195.804 34.28 195.72 33.806 195.552 33.362C195.384 32.918 195.114 32.564 194.742 32.3C194.382 32.024 193.902 31.886 193.302 31.886C192.702 31.886 192.216 32.024 191.844 32.3C191.472 32.564 191.202 32.918 191.034 33.362C190.866 33.794 190.782 34.268 190.782 34.784C190.782 35.288 190.866 35.762 191.034 36.206C191.214 36.638 191.484 36.986 191.844 37.25C192.216 37.502 192.702 37.628 193.302 37.628ZM209.142 43.838C208.446 43.838 207.792 43.724 207.18 43.496C206.58 43.28 206.07 42.932 205.65 42.452C205.242 41.984 204.966 41.378 204.822 40.634H207.072C207.144 40.922 207.288 41.156 207.504 41.336C207.72 41.516 207.972 41.642 208.26 41.714C208.56 41.798 208.866 41.84 209.178 41.84C209.766 41.84 210.228 41.72 210.564 41.48C210.912 41.24 211.158 40.91 211.302 40.49C211.446 40.082 211.518 39.632 211.518 39.14V38.24C211.302 38.588 211.026 38.864 210.69 39.068C210.366 39.272 210.018 39.416 209.646 39.5C209.286 39.572 208.926 39.608 208.566 39.608C207.582 39.608 206.778 39.392 206.154 38.96C205.542 38.528 205.092 37.952 204.804 37.232C204.516 36.5 204.372 35.696 204.372 34.82C204.372 33.908 204.528 33.08 204.84 32.336C205.164 31.58 205.644 30.98 206.28 30.536C206.928 30.092 207.738 29.87 208.71 29.87C209.274 29.87 209.802 29.972 210.294 30.176C210.798 30.368 211.218 30.662 211.554 31.058L211.698 30.014H213.732V38.672C213.732 39.74 213.576 40.658 213.264 41.426C212.964 42.206 212.478 42.8 211.806 43.208C211.134 43.628 210.246 43.838 209.142 43.838ZM209.016 37.664C209.58 37.664 210.048 37.532 210.42 37.268C210.792 36.992 211.074 36.632 211.266 36.188C211.458 35.732 211.554 35.24 211.554 34.712C211.554 34.172 211.458 33.686 211.266 33.254C211.086 32.822 210.81 32.48 210.438 32.228C210.078 31.976 209.61 31.85 209.034 31.85C208.422 31.85 207.936 31.988 207.576 32.264C207.216 32.54 206.952 32.906 206.784 33.362C206.628 33.806 206.55 34.28 206.55 34.784C206.55 35.312 206.634 35.798 206.802 36.242C206.97 36.674 207.234 37.022 207.594 37.286C207.954 37.538 208.428 37.664 209.016 37.664ZM215.859 39.5V30.014H218.055V39.5H215.859ZM216.957 28.916C216.537 28.916 216.201 28.79 215.949 28.538C215.697 28.286 215.571 27.956 215.571 27.548C215.571 27.152 215.703 26.828 215.967 26.576C216.231 26.312 216.561 26.18 216.957 26.18C217.341 26.18 217.671 26.306 217.947 26.558C218.223 26.81 218.361 27.14 218.361 27.548C218.361 27.956 218.229 28.286 217.965 28.538C217.701 28.79 217.365 28.916 216.957 28.916ZM222.595 39.5L219.157 30.014H221.587L224.089 37.628L226.573 30.014H228.985L225.547 39.5H222.595ZM234.327 39.626C233.343 39.626 232.503 39.422 231.807 39.014C231.123 38.606 230.601 38.042 230.241 37.322C229.893 36.59 229.719 35.744 229.719 34.784C229.719 33.824 229.899 32.978 230.259 32.246C230.631 31.502 231.159 30.92 231.843 30.5C232.539 30.08 233.373 29.87 234.345 29.87C235.065 29.87 235.695 30.002 236.235 30.266C236.775 30.518 237.225 30.866 237.585 31.31C237.957 31.754 238.233 32.258 238.413 32.822C238.593 33.386 238.677 33.98 238.665 34.604C238.653 34.748 238.641 34.892 238.629 35.036C238.617 35.168 238.599 35.312 238.575 35.468H231.915C231.951 35.888 232.059 36.272 232.239 36.62C232.431 36.968 232.695 37.244 233.031 37.448C233.379 37.652 233.811 37.754 234.327 37.754C234.627 37.754 234.915 37.718 235.191 37.646C235.467 37.562 235.707 37.442 235.911 37.286C236.127 37.13 236.271 36.932 236.343 36.692H238.539C238.383 37.376 238.095 37.934 237.675 38.366C237.255 38.798 236.751 39.116 236.163 39.32C235.587 39.524 234.975 39.626 234.327 39.626ZM231.951 33.83H236.523C236.523 33.434 236.433 33.074 236.253 32.75C236.073 32.426 235.815 32.174 235.479 31.994C235.155 31.802 234.759 31.706 234.291 31.706C233.787 31.706 233.367 31.808 233.031 32.012C232.695 32.216 232.437 32.48 232.257 32.804C232.077 33.128 231.975 33.47 231.951 33.83ZM245.785 39.5V26.774H254.677V28.826H248.035V32.624H253.723V34.676H248.035V39.5H245.785ZM260.044 39.626C259.06 39.626 258.22 39.422 257.524 39.014C256.84 38.606 256.318 38.042 255.958 37.322C255.61 36.59 255.436 35.744 255.436 34.784C255.436 33.824 255.616 32.978 255.976 32.246C256.348 31.502 256.876 30.92 257.56 30.5C258.256 30.08 259.09 29.87 260.062 29.87C260.782 29.87 261.412 30.002 261.952 30.266C262.492 30.518 262.942 30.866 263.302 31.31C263.674 31.754 263.95 32.258 264.13 32.822C264.31 33.386 264.394 33.98 264.382 34.604C264.37 34.748 264.358 34.892 264.346 35.036C264.334 35.168 264.316 35.312 264.292 35.468H257.632C257.668 35.888 257.776 36.272 257.956 36.62C258.148 36.968 258.412 37.244 258.748 37.448C259.096 37.652 259.528 37.754 260.044 37.754C260.344 37.754 260.632 37.718 260.908 37.646C261.184 37.562 261.424 37.442 261.628 37.286C261.844 37.13 261.988 36.932 262.06 36.692H264.256C264.1 37.376 263.812 37.934 263.392 38.366C262.972 38.798 262.468 39.116 261.88 39.32C261.304 39.524 260.692 39.626 260.044 39.626ZM257.668 33.83H262.24C262.24 33.434 262.15 33.074 261.97 32.75C261.79 32.426 261.532 32.174 261.196 31.994C260.872 31.802 260.476 31.706 260.008 31.706C259.504 31.706 259.084 31.808 258.748 32.012C258.412 32.216 258.154 32.48 257.974 32.804C257.794 33.128 257.692 33.47 257.668 33.83ZM270.38 39.626C269.396 39.626 268.556 39.422 267.86 39.014C267.176 38.606 266.654 38.042 266.294 37.322C265.946 36.59 265.772 35.744 265.772 34.784C265.772 33.824 265.952 32.978 266.312 32.246C266.684 31.502 267.212 30.92 267.896 30.5C268.592 30.08 269.426 29.87 270.398 29.87C271.118 29.87 271.748 30.002 272.288 30.266C272.828 30.518 273.278 30.866 273.638 31.31C274.01 31.754 274.286 32.258 274.466 32.822C274.646 33.386 274.73 33.98 274.718 34.604C274.706 34.748 274.694 34.892 274.682 35.036C274.67 35.168 274.652 35.312 274.628 35.468H267.968C268.004 35.888 268.112 36.272 268.292 36.62C268.484 36.968 268.748 37.244 269.084 37.448C269.432 37.652 269.864 37.754 270.38 37.754C270.68 37.754 270.968 37.718 271.244 37.646C271.52 37.562 271.76 37.442 271.964 37.286C272.18 37.13 272.324 36.932 272.396 36.692H274.592C274.436 37.376 274.148 37.934 273.728 38.366C273.308 38.798 272.804 39.116 272.216 39.32C271.64 39.524 271.028 39.626 270.38 39.626ZM268.004 33.83H272.576C272.576 33.434 272.486 33.074 272.306 32.75C272.126 32.426 271.868 32.174 271.532 31.994C271.208 31.802 270.812 31.706 270.344 31.706C269.84 31.706 269.42 31.808 269.084 32.012C268.748 32.216 268.49 32.48 268.31 32.804C268.13 33.128 268.028 33.47 268.004 33.83ZM280.338 39.626C279.378 39.626 278.586 39.41 277.962 38.978C277.338 38.534 276.87 37.946 276.558 37.214C276.258 36.482 276.108 35.666 276.108 34.766C276.108 33.83 276.27 32.996 276.594 32.264C276.918 31.52 277.404 30.938 278.052 30.518C278.7 30.086 279.51 29.87 280.482 29.87C280.842 29.87 281.19 29.912 281.526 29.996C281.874 30.068 282.198 30.188 282.498 30.356C282.81 30.512 283.068 30.722 283.272 30.986V26.774H285.468V39.5H283.344L283.308 38.312C283.08 38.612 282.81 38.858 282.498 39.05C282.198 39.242 281.862 39.386 281.49 39.482C281.118 39.578 280.734 39.626 280.338 39.626ZM280.752 37.646C281.328 37.646 281.802 37.514 282.174 37.25C282.546 36.974 282.822 36.614 283.002 36.17C283.194 35.714 283.29 35.234 283.29 34.73C283.29 34.202 283.194 33.722 283.002 33.29C282.822 32.858 282.546 32.51 282.174 32.246C281.802 31.982 281.328 31.85 280.752 31.85C280.14 31.85 279.654 31.988 279.294 32.264C278.946 32.54 278.688 32.906 278.52 33.362C278.364 33.806 278.286 34.286 278.286 34.802C278.286 35.186 278.328 35.552 278.412 35.9C278.508 36.236 278.652 36.536 278.844 36.8C279.036 37.064 279.288 37.274 279.6 37.43C279.912 37.574 280.296 37.646 280.752 37.646ZM292.689 39.626C292.341 39.626 291.993 39.59 291.645 39.518C291.297 39.446 290.961 39.32 290.637 39.14C290.325 38.96 290.037 38.72 289.773 38.42L289.719 39.5H287.595V26.774H289.791V31.202C290.139 30.758 290.583 30.428 291.123 30.212C291.675 29.984 292.245 29.87 292.833 29.87C293.769 29.87 294.537 30.086 295.137 30.518C295.749 30.938 296.199 31.514 296.487 32.246C296.787 32.978 296.937 33.806 296.937 34.73C296.937 35.654 296.781 36.488 296.469 37.232C296.169 37.964 295.707 38.546 295.083 38.978C294.459 39.41 293.661 39.626 292.689 39.626ZM292.329 37.682C292.941 37.682 293.421 37.544 293.769 37.268C294.129 36.98 294.387 36.608 294.543 36.152C294.699 35.696 294.777 35.216 294.777 34.712C294.777 34.196 294.693 33.722 294.525 33.29C294.369 32.858 294.111 32.51 293.751 32.246C293.391 31.982 292.911 31.85 292.311 31.85C291.759 31.85 291.291 31.994 290.907 32.282C290.535 32.558 290.253 32.924 290.061 33.38C289.869 33.824 289.773 34.286 289.773 34.766C289.773 35.27 289.857 35.744 290.025 36.188C290.205 36.632 290.481 36.992 290.853 37.268C291.237 37.544 291.729 37.682 292.329 37.682ZM301.728 39.626C301.284 39.626 300.864 39.566 300.468 39.446C300.072 39.326 299.718 39.152 299.406 38.924C299.094 38.684 298.842 38.39 298.65 38.042C298.47 37.682 298.38 37.262 298.38 36.782C298.38 36.17 298.5 35.672 298.74 35.288C298.98 34.892 299.304 34.592 299.712 34.388C300.132 34.184 300.606 34.046 301.134 33.974C301.662 33.89 302.214 33.848 302.79 33.848H304.644C304.644 33.428 304.578 33.068 304.446 32.768C304.314 32.456 304.104 32.21 303.816 32.03C303.54 31.85 303.18 31.76 302.736 31.76C302.448 31.76 302.178 31.796 301.926 31.868C301.686 31.928 301.476 32.03 301.296 32.174C301.128 32.306 301.008 32.48 300.936 32.696H298.686C298.77 32.204 298.938 31.784 299.19 31.436C299.454 31.076 299.772 30.782 300.144 30.554C300.528 30.326 300.948 30.158 301.404 30.05C301.86 29.93 302.322 29.87 302.79 29.87C304.17 29.87 305.172 30.266 305.796 31.058C306.432 31.85 306.75 32.96 306.75 34.388V39.5H304.806L304.752 38.276C304.476 38.684 304.146 38.984 303.762 39.176C303.378 39.368 303.006 39.488 302.646 39.536C302.286 39.596 301.98 39.626 301.728 39.626ZM302.16 37.844C302.64 37.844 303.066 37.754 303.438 37.574C303.81 37.394 304.104 37.142 304.32 36.818C304.548 36.494 304.662 36.122 304.662 35.702V35.396H302.934C302.646 35.396 302.358 35.408 302.07 35.432C301.794 35.444 301.542 35.492 301.314 35.576C301.086 35.648 300.9 35.762 300.756 35.918C300.624 36.074 300.558 36.296 300.558 36.584C300.558 36.872 300.63 37.106 300.774 37.286C300.93 37.466 301.128 37.604 301.368 37.7C301.62 37.796 301.884 37.844 302.16 37.844ZM313.023 39.626C312.039 39.626 311.211 39.428 310.539 39.032C309.867 38.624 309.357 38.054 309.009 37.322C308.661 36.59 308.487 35.744 308.487 34.784C308.487 33.824 308.667 32.978 309.027 32.246C309.387 31.502 309.915 30.92 310.611 30.5C311.307 30.08 312.153 29.87 313.149 29.87C313.881 29.87 314.529 29.996 315.093 30.248C315.669 30.5 316.131 30.872 316.479 31.364C316.839 31.844 317.067 32.444 317.163 33.164H315.003C314.859 32.708 314.619 32.378 314.283 32.174C313.959 31.958 313.569 31.85 313.113 31.85C312.501 31.85 312.015 32 311.655 32.3C311.307 32.588 311.055 32.954 310.899 33.398C310.743 33.842 310.665 34.304 310.665 34.784C310.665 35.288 310.749 35.762 310.917 36.206C311.085 36.638 311.343 36.986 311.691 37.25C312.051 37.514 312.513 37.646 313.077 37.646C313.533 37.646 313.941 37.544 314.301 37.34C314.673 37.136 314.913 36.806 315.021 36.35H317.253C317.169 37.082 316.923 37.694 316.515 38.186C316.119 38.666 315.615 39.026 315.003 39.266C314.391 39.506 313.731 39.626 313.023 39.626ZM318.901 39.5V26.774H321.097V33.812H322.465L324.967 30.014H327.433L324.355 34.532L327.685 39.5H325.129L322.591 35.738H321.097V39.5H318.901Z" fill="#19415A"/>
<defs>
<clipPath id="clip0_2_1504">
<rect width="24" height="24" fill="white" transform="translate(51.9535 22)"/>
</clipPath>
</defs>
</svg>
