<svg width="48" height="48" viewBox="0 0 48 48" fill="none" xmlns="http://www.w3.org/2000/svg">
<circle cx="24" cy="24" r="23.5" stroke="#DDDDDD"/>
<g clip-path="url(#clip0_2_724)">
<path d="M21.8842 21.8838C22.1117 21.655 22.3638 21.4522 22.6361 21.2791C23.3572 20.8174 24.1954 20.572 25.0517 20.572C26.2401 20.5698 27.3802 21.042 28.2191 21.8838L32.2888 25.9567C33.1262 26.7957 33.5969 27.9326 33.5977 29.118C33.5992 31.5918 31.5951 33.5985 29.1213 33.6001C27.9347 33.6042 26.7957 33.1343 25.9571 32.2947L22.5977 28.9353C22.5367 28.8748 22.5026 28.7922 22.5031 28.7063C22.5041 28.5296 22.6482 28.3872 22.8249 28.3882H22.9528C23.6547 28.3907 24.3503 28.2559 25.0004 27.9915C25.1202 27.9422 25.2579 27.97 25.3492 28.0619L27.7648 30.4806C28.5148 31.2307 29.731 31.2307 30.4811 30.4806C31.2312 29.7305 31.2312 28.5144 30.4811 27.7643L26.3954 23.6819C25.6459 22.9333 24.4318 22.9333 23.6823 23.6819C23.1772 24.1572 22.3893 24.1572 21.8842 23.6819C21.6669 23.4644 21.5351 23.1759 21.513 22.8692C21.4897 22.5027 21.6249 22.1438 21.8842 21.8838Z" fill="#03436A"/>
<path d="M15.7133 15.7121C17.4627 13.9628 20.2989 13.9628 22.0482 15.7121L25.4044 19.0651C25.4966 19.1577 25.5231 19.297 25.4716 19.4171C25.4206 19.5375 25.3016 19.6147 25.1709 19.6122H25.0525C24.3514 19.611 23.657 19.7468 23.0081 20.0122C22.8883 20.0615 22.7506 20.0337 22.6593 19.9418L20.2502 17.5358C19.5001 16.7857 18.2839 16.7857 17.5339 17.5358C16.7838 18.2859 16.7838 19.502 17.5339 20.2521L20.5349 23.25L20.5605 23.2788L21.6099 24.3218C22.3594 25.0703 23.5736 25.0703 24.3231 24.3218C24.8282 23.8464 25.6161 23.8464 26.1211 24.3218C26.3398 24.5409 26.4717 24.8319 26.4923 25.1408C26.5157 25.5073 26.3805 25.8663 26.1211 26.1263C25.7508 26.4982 25.3175 26.8014 24.8414 27.0221C24.7742 27.0541 24.707 27.0797 24.6398 27.1085C24.5726 27.1373 24.5022 27.1597 24.4351 27.1853C24.3679 27.2109 24.2975 27.2333 24.2303 27.2525L24.0415 27.3036C23.9136 27.3356 23.7856 27.3612 23.6544 27.3836C23.4964 27.4071 23.3373 27.422 23.1777 27.4284H22.9537H22.9345L22.7426 27.406C22.6722 27.4028 22.5986 27.3868 22.5154 27.3868H22.4066L22.1859 27.3548L22.0835 27.3357L21.8979 27.2973H21.8627C21.0768 27.0999 20.3592 26.6929 19.7863 26.1199L15.7134 22.047C13.964 20.2977 13.964 17.4615 15.7133 15.7121Z" fill="#03436A"/>
</g>
<defs>
<clipPath id="clip0_2_724">
<rect width="19.2" height="19.2" fill="white" transform="matrix(-1 0 0 1 33.6007 14.4001)"/>
</clipPath>
</defs>
</svg>
