<svg width="49" height="49" viewBox="0 0 49 49" fill="none" xmlns="http://www.w3.org/2000/svg">
<circle cx="24.75" cy="24.7035" r="23.5" stroke="#DDDDDD"/>
<g clip-path="url(#clip0_1_479)">
<path d="M30.4636 27.0959C30.4432 27.1163 30.4252 27.1399 30.405 27.1602L24.7479 32.5053L19.1245 27.1929C19.093 27.1614 19.0667 27.1273 19.0354 27.0945C16.6808 27.8241 15.1479 28.9883 15.1479 30.3038C15.1479 32.5132 19.4463 34.3039 24.7479 34.3039C30.0512 34.3039 34.3479 32.5132 34.3479 30.3038C34.3479 28.9883 32.8167 27.8241 30.4636 27.0959Z" fill="#205052"/>
<path d="M31.1491 21.5035C31.1491 17.9723 28.2849 15.1036 24.7499 15.1036C21.2172 15.1051 18.3499 17.969 18.3499 21.5052C18.3499 23.2706 19.0662 24.8707 20.225 26.0287L24.7499 30.3036L29.2756 26.027C30.4334 24.8709 31.15 23.2709 31.15 21.5035H31.1491ZM24.7499 24.7036C22.9821 24.7036 21.55 23.2723 21.55 21.5035C21.55 19.7363 22.9821 18.3036 24.7499 18.3036C26.5171 18.3036 27.9499 19.7363 27.9499 21.5035C27.9499 23.2723 26.5171 24.7036 24.7499 24.7036Z" fill="#205052"/>
</g>
<defs>
<clipPath id="clip0_1_479">
<rect width="19.2" height="19.2" fill="white" transform="translate(15.1495 15.1035)"/>
</clipPath>
</defs>
</svg>
