<svg width="49" height="49" viewBox="0 0 49 49" fill="none" xmlns="http://www.w3.org/2000/svg">
<circle cx="24.75" cy="24.2035" r="23.5" stroke="#DDDDDD"/>
<g clip-path="url(#clip0_1_458)">
<path d="M34.3129 19.0372L27.5785 25.7716C26.8276 26.5206 25.8103 26.9413 24.7497 26.9413C23.6891 26.9413 22.6718 26.5206 21.9209 25.7716L15.1865 19.0372C15.1753 19.1636 15.1497 19.278 15.1497 19.4036V29.0036C15.1509 30.0641 15.5728 31.0808 16.3226 31.8307C17.0725 32.5805 18.0892 33.0024 19.1497 33.0036H30.3497C31.4101 33.0024 32.4268 32.5805 33.1767 31.8307C33.9266 31.0808 34.3484 30.0641 34.3497 29.0036V19.4036C34.3497 19.278 34.3241 19.1636 34.3129 19.0372Z" fill="#205052"/>
<path d="M26.4474 24.6405L33.7546 17.3325C33.4006 16.7455 32.9014 16.2597 32.305 15.9219C31.7086 15.584 31.0352 15.4056 30.3498 15.4037H19.1498C18.4644 15.4056 17.791 15.584 17.1946 15.9219C16.5982 16.2597 16.099 16.7455 15.745 17.3325L23.0522 24.6405C23.5031 25.0895 24.1135 25.3417 24.7498 25.3417C25.3861 25.3417 25.9965 25.0895 26.4474 24.6405Z" fill="#205052"/>
</g>
<defs>
<clipPath id="clip0_1_458">
<rect width="19.2" height="19.2" fill="white" transform="translate(15.1495 14.6036)"/>
</clipPath>
</defs>
</svg>
