<svg width="49" height="49" viewBox="0 0 49 49" fill="none" xmlns="http://www.w3.org/2000/svg">
<circle cx="24.25" cy="24.7035" r="23.5" stroke="#DDDDDD"/>
<g clip-path="url(#clip0_1_497)">
<path d="M24.4173 15.0293C18.8507 15.0293 14.7238 17.2367 14.7238 19.8281V20.4999C14.7238 21.1718 15.2996 21.6516 15.9714 21.7476H18.4668C19.3306 21.7476 19.8105 20.6919 19.5226 19.8281C19.0427 19.1563 19.5226 18.1965 20.2904 18.0046C22.9777 17.4287 25.665 17.4287 28.4483 18.0046C29.3121 18.1965 29.696 19.0603 29.2161 19.8281C28.9282 20.6919 29.4081 21.6516 30.2719 21.7476H32.7672C33.4391 21.7476 34.0149 21.1718 34.0149 20.4999V19.8281C33.919 17.1408 29.696 15.0293 24.4173 15.0293Z" fill="#205052"/>
<path d="M29.4079 22.2275C29.216 21.9396 28.928 21.7476 28.5441 21.7476H27.2005V20.308C27.2005 20.0201 27.0085 19.8281 26.7206 19.8281H25.7608C25.4729 19.8281 25.2809 20.0201 25.2809 20.308V21.7476H23.3614V20.308C23.3614 20.0201 23.1695 19.8281 22.8815 19.8281H21.9218C21.6339 19.8281 21.4419 20.0201 21.4419 20.308V21.7476H20.0982C19.7143 21.7476 19.4264 21.9396 19.2345 22.2275C17.7948 24.7229 15.6833 27.8901 15.6833 33.2648C15.6833 33.7446 16.0673 34.2245 16.6431 34.2245H31.9993C32.5751 34.2245 32.959 33.7446 32.959 33.2648C32.959 27.8901 30.7516 24.5309 29.4079 22.2275ZM24.3212 32.305C22.2097 32.305 20.4821 30.5774 20.4821 28.466C20.4821 26.3545 22.2097 24.6269 24.3212 24.6269C26.4327 24.6269 28.1602 26.3545 28.1602 28.466C28.1602 30.5774 26.4327 32.305 24.3212 32.305Z" fill="#205052"/>
<path d="M24.321 30.3854C25.3811 30.3854 26.2405 29.526 26.2405 28.4659C26.2405 27.4058 25.3811 26.5464 24.321 26.5464C23.2609 26.5464 22.4015 27.4058 22.4015 28.4659C22.4015 29.526 23.2609 30.3854 24.321 30.3854Z" fill="#205052"/>
</g>
<defs>
<clipPath id="clip0_1_497">
<rect width="19.1952" height="19.1952" fill="white" transform="translate(14.7238 15.0293)"/>
</clipPath>
</defs>
</svg>
