<svg width="45" height="46" viewBox="0 0 45 46" fill="none" xmlns="http://www.w3.org/2000/svg">
<path d="M9.69995 44.5999C9.69995 45.0407 10.0592 45.3999 10.5 45.3999H34.5C34.9408 45.3999 35.3 45.0407 35.3 44.5999C35.3 44.1591 34.9408 43.7999 34.5 43.7999H10.5C10.0592 43.7999 9.69995 44.1591 9.69995 44.5999Z" fill="#03436A"/>
<path d="M16.5944 39L14.9944 42.2H30.0056L28.4056 39H16.5944Z" fill="#03436A"/>
<path d="M4.09998 2.99998H5.69998C6.14078 2.99998 6.49998 2.64078 6.49998 2.19998V0.599976H4.09998V2.99998Z" fill="#03436A"/>
<path d="M0.0999756 36.4544C0.0999756 36.9672 0.466376 37.4 0.899976 37.4H44.1C44.5336 37.4 44.9 36.9672 44.9 36.4544V34.2H0.0999756V36.4544Z" fill="#03436A"/>
<path d="M2.49998 0.599976H0.899976C0.466376 0.599976 0.0999756 1.03278 0.0999756 1.54558V2.99998H2.49998V0.599976Z" fill="#03436A"/>
<path d="M34.5 6.99995H10.5C10.0592 6.99995 9.69995 7.35915 9.69995 7.79995V32.5999H35.3V17.9231L33.5544 19.4935C33.6448 19.9927 33.4992 20.5263 33.1136 20.9111L29.7192 24.3055C29.548 24.4767 29.3464 24.5967 29.1328 24.6735C29.0976 25.4231 28.86 26.5775 27.872 27.5655C26.4384 28.9991 25.072 28.7719 23.972 28.5887C22.9752 28.4231 22.3168 28.3135 21.4656 29.1655C21.3136 29.3183 21.1088 29.3999 20.9 29.3999C20.8152 29.3999 20.7288 29.3863 20.6456 29.3583C20.3584 29.2615 20.1496 29.0111 20.108 28.7103C19.7232 25.9527 20.5904 23.8863 21.3848 22.6383C21.8968 21.8351 22.7736 21.1303 23.7912 20.7047C24.1376 20.5599 24.4576 20.4447 24.8208 20.3855C24.8976 20.1647 25.0184 19.9559 25.1944 19.7799L28.5888 16.3855C28.9736 16.0007 29.5072 15.8551 30.0064 15.9447L35.3 10.0607V7.79915C35.3 7.35835 34.9408 6.99915 34.5 6.99915V6.99995Z" fill="#03436A"/>
<path d="M44.1 0.599976H8.09998V2.19998C8.09998 3.52318 7.02318 4.59998 5.69998 4.59998H0.0999756V32.6H8.09998V7.79998C8.09998 6.47678 9.17678 5.39998 10.5 5.39998H34.5C35.8232 5.39998 36.9 6.47678 36.9 7.79998V8.28318L37.1352 8.02158C37.7032 7.38798 38.4864 7.02478 39.3392 7.00158C40.172 6.97758 41.004 7.30558 41.5992 7.90158C42.1944 8.49598 42.5216 9.31998 42.4992 10.1616C42.476 11.0144 42.1128 11.7976 41.4776 12.3672L36.9008 16.4848V32.6008H44.9008V1.54558C44.9008 1.03278 44.5336 0.599976 44.1 0.599976Z" fill="#03436A"/>
<path d="M26.3195 20.9084L29.7136 17.5143L31.9769 19.7776L28.5828 23.1718L26.3195 20.9084Z" fill="#03436A"/>
<path d="M40.4079 11.1752C40.7143 10.9016 40.8879 10.5256 40.8991 10.1168C40.9103 9.70716 40.7567 9.32156 40.4671 9.03276C40.1775 8.74396 39.7967 8.59756 39.3831 8.60076C38.9735 8.61196 38.5983 8.78556 38.3255 9.09036L31.3303 16.8656L32.6335 18.1688L40.4079 11.1752Z" fill="#03436A"/>
<path d="M25.1944 22.0423C25.1672 22.0151 25.148 21.9831 25.1224 21.9543C24.8976 21.9831 24.6928 22.0607 24.4088 22.1799C23.6952 22.4783 23.0696 22.9711 22.7336 23.4983C22.2192 24.3055 21.668 25.5343 21.6176 27.1391C22.5736 26.7351 23.4696 26.8839 24.2344 27.0103C25.2312 27.1759 25.8896 27.2855 26.7408 26.4335C27.4976 25.6767 27.5552 24.7711 27.5384 24.3711C27.512 24.3479 27.4824 24.3295 27.4568 24.3047L25.1936 22.0415L25.1944 22.0423Z" fill="#03436A"/>
</svg>
