<svg width="49" height="48" viewBox="0 0 49 48" fill="none" xmlns="http://www.w3.org/2000/svg">
<circle cx="24.25" cy="24" r="23.5" stroke="#DDDDDD"/>
<g clip-path="url(#clip0_2_741)">
<path d="M24.1391 14.2893H24.1343C18.8424 14.2893 14.5391 18.5938 14.5391 23.8869C14.5391 25.9864 15.2157 27.9323 16.3662 29.5123L15.1701 33.0778L18.8592 31.8985C20.3768 32.9039 22.1872 33.4845 24.1391 33.4845C29.4309 33.4845 33.7343 29.1788 33.7343 23.8869C33.7343 18.595 29.4309 14.2893 24.1391 14.2893ZM29.7237 27.8423C29.4921 28.4962 28.5732 29.0384 27.8401 29.1968C27.3387 29.3036 26.6836 29.3887 24.4786 28.4746C21.6581 27.3061 19.8417 24.44 19.7002 24.254C19.5646 24.0681 18.5605 22.7364 18.5605 21.3591C18.5605 19.9819 19.2599 19.3113 19.5418 19.0233C19.7734 18.787 20.1561 18.679 20.5232 18.679C20.6419 18.679 20.7487 18.685 20.8447 18.6898C21.1266 18.7018 21.2682 18.7186 21.4541 19.1637C21.6857 19.7215 22.2495 21.0988 22.3167 21.2404C22.3851 21.3819 22.4535 21.5739 22.3575 21.7598C22.2675 21.9518 22.1884 22.037 22.0468 22.2001C21.9052 22.3633 21.7709 22.4881 21.6293 22.6632C21.4997 22.8156 21.3534 22.9787 21.5165 23.2607C21.6797 23.5366 22.2435 24.4568 23.0737 25.1958C24.1451 26.1495 25.0136 26.4543 25.3244 26.5838C25.5559 26.6798 25.8318 26.657 26.001 26.4771C26.2157 26.2455 26.4809 25.8616 26.7508 25.4837C26.9428 25.2126 27.1851 25.179 27.4394 25.275C27.6986 25.3649 29.0698 26.0428 29.3518 26.1831C29.6337 26.3247 29.8196 26.3919 29.888 26.5107C29.9552 26.6294 29.9552 27.1873 29.7237 27.8423Z" fill="#03436A"/>
</g>
<defs>
<clipPath id="clip0_2_741">
<rect width="19.1952" height="19.1952" fill="white" transform="translate(14.5391 14.2893)"/>
</clipPath>
</defs>
</svg>
