<svg width="48" height="48" viewBox="0 0 48 48" fill="none" xmlns="http://www.w3.org/2000/svg">
<circle cx="24" cy="24" r="23.5" stroke="#DDDDDD"/>
<g clip-path="url(#clip0_2_747)">
<path d="M35.22 17.8628C34.9456 16.8426 34.1412 16.0383 33.1211 15.7636C31.2574 15.2537 23.8028 15.2537 23.8028 15.2537C23.8028 15.2537 16.3484 15.2537 14.4848 15.7442C13.4843 16.0187 12.6603 16.8427 12.3858 17.8628C11.8954 19.7263 11.8954 23.5909 11.8954 23.5909C11.8954 23.5909 11.8954 27.475 12.3858 29.319C12.6605 30.3392 13.4647 31.1434 14.4849 31.4182C16.368 31.9282 23.8031 31.9282 23.8031 31.9282C23.8031 31.9282 31.2574 31.9282 33.1211 31.4376C34.1413 31.163 34.9456 30.3588 35.2203 29.3387C35.7106 27.475 35.7106 23.6106 35.7106 23.6106C35.7106 23.6106 35.7302 19.7263 35.22 17.8628ZM21.4294 27.1612V20.0207L27.6283 23.5909L21.4294 27.1612Z" fill="#03436A"/>
</g>
<defs>
<clipPath id="clip0_2_747">
<rect width="25.4031" height="25.4031" fill="white" transform="translate(11.1138 11.1138)"/>
</clipPath>
</defs>
</svg>
