<svg width="49" height="48" viewBox="0 0 49 48" fill="none" xmlns="http://www.w3.org/2000/svg">
<path fill-rule="evenodd" clip-rule="evenodd" d="M31.0062 12.7313H43.625C44.4312 12.7313 45.0875 12.075 45.0875 11.2687V1.4625C45.0969 0.65625 44.4312 0 43.625 0H31.0062C30.2 0 29.5437 0.65625 29.5437 1.4625V11.2781C29.5437 12.075 30.2 12.7313 31.0062 12.7313ZM35.825 7.64062V5.09062L38.0281 6.36563L35.825 7.64062ZM39.9687 5.7C40.2125 5.83125 40.3531 6.10313 40.3531 6.375C40.3531 6.64687 40.2125 6.90937 39.9687 7.04062L35.4312 9.65625C35.3187 9.72188 35.1781 9.75937 35.0469 9.75937C34.9156 9.75937 34.775 9.72188 34.6625 9.65625C34.4187 9.525 34.2781 9.27188 34.2781 8.99063V3.75937C34.2781 3.4875 34.4187 3.225 34.6625 3.09375C34.9062 2.9625 35.1969 2.9625 35.4406 3.09375L39.9687 5.7ZM43.9812 23.0438C43.9812 22.6219 44.3281 22.2656 44.7594 22.2656C45.1812 22.2656 45.5375 22.6125 45.5375 23.0438C45.5375 23.4656 45.1906 23.8219 44.7594 23.8219C44.3187 23.8125 43.9812 23.4656 43.9812 23.0438ZM40.2875 23.0438C40.2875 22.6219 40.6344 22.2656 41.0656 22.2656C41.4875 22.2656 41.8437 22.6125 41.8437 23.0438C41.8437 23.4656 41.4969 23.8219 41.0656 23.8219C40.6344 23.8125 40.2875 23.4656 40.2875 23.0438ZM36.5937 23.0438C36.5937 22.6219 36.9406 22.2656 37.3718 22.2656C37.7937 22.2656 38.15 22.6125 38.15 23.0438C38.15 23.4656 37.8031 23.8219 37.3718 23.8219C36.9406 23.8125 36.5937 23.4656 36.5937 23.0438ZM47.4219 27.9656V18.1031H34.6906V27.9656H47.4219ZM39.4343 43.3406H39.4156V29.5312H34.6156C33.8 29.5312 33.1344 28.8656 33.1344 28.05V19.8094H28.8406L31.5781 30.0188C31.9531 31.4344 31.1094 32.8875 29.7125 33.2625C29.4781 33.3187 29.2437 33.3469 29.0281 33.3469C28.0437 33.3469 27.1344 32.7844 26.675 31.8938L17.8812 30.1875L17.1969 30.375L21.1812 35.7281C21.4906 36.1406 21.575 36.6562 21.4062 37.1531C21.2281 37.6406 20.8531 37.9969 20.3469 38.1281L17.2625 38.9531C17.1312 38.9906 16.9906 39.0094 16.8594 39.0094C16.3625 39.0094 15.9031 38.7656 15.6125 38.3531L12.0219 33.2531C11.9656 33.1875 11.9281 33.0938 11.9094 33.0094L11.5625 31.7063C10.7281 31.5938 10.0156 30.9937 9.78123 30.1312L8.31873 24.6656C8.01873 23.5125 8.69373 22.3312 9.84685 22.0219L15.3125 20.5594L16.1656 19.8281H4.5406C3.88435 19.8281 3.34998 20.3625 3.34998 21.0187V43.3594H39.4343V43.3406ZM16.4281 44.8969H26.3562V45.4781H16.4281V44.8969ZM41.2156 45.9281H41.225V44.9062H27.9125V45.675C27.9125 46.4344 27.3031 47.0437 26.5437 47.0437H16.2406C15.4812 47.0437 14.8719 46.4344 14.8719 45.675V44.9062H1.56873V45.9281C1.56873 47.0719 2.49685 48 3.6406 48H39.1344C40.2875 48 41.2156 47.0719 41.2156 45.9281ZM18.4812 28.7156L16.55 21.5062L22.4562 16.3688L26.1594 30.2063L18.4812 28.7156ZM15.1344 22.1906L16.9156 28.8375L12.05 30.1406C12.0219 30.1406 11.9937 30.15 11.9562 30.1594H11.9375C11.8062 30.1781 11.675 30.15 11.5625 30.0844C11.4219 30.0094 11.3187 29.8687 11.2812 29.7188L9.81873 24.2531C9.73435 23.9344 9.92185 23.5969 10.2406 23.5125L15.1344 22.1906ZM15.6875 30.825C15.7156 30.9187 15.7531 31.0125 15.8094 31.0875L19.9437 36.6281L16.8781 37.4531L13.3719 32.4656L13.1 31.4625L15.6687 30.7781L15.6875 30.825ZM24.4156 13.4625C24.6969 13.3875 24.9875 13.425 25.25 13.575C25.5031 13.7156 25.6812 13.9594 25.7656 14.2406L30.0969 30.4125C30.2562 30.9937 29.9 31.5938 29.3187 31.7531C28.7375 31.9125 28.1375 31.5562 27.9781 30.975L23.6469 14.7938C23.4875 14.2125 23.825 13.6125 24.4156 13.4625ZM6.85623 5.68125H16.8031L11.8156 9.80625L6.85623 5.68125ZM18.0312 13.8656C18.1719 13.8656 18.3031 13.7437 18.3031 13.5938V6.44062L12.3218 11.4C12.1812 11.5125 12.0031 11.5781 11.825 11.5781C11.6469 11.5781 11.4781 11.5219 11.3281 11.4L5.35623 6.44062V13.6031C5.35623 13.7344 5.46873 13.8656 5.61873 13.8656H18.0312Z" fill="#03436A"/>
</svg>
