<svg width="89" height="101" viewBox="0 0 89 101" fill="none" xmlns="http://www.w3.org/2000/svg">
<rect y="12" width="80" height="89" rx="8" fill="#F6F6F6"/>
<g clip-path="url(#clip0_19_13047)">
<path d="M89 4.10063C89 1.83592 87.2091 0 85 0H63C60.7908 0 59 1.83592 59 4.10063V22.0408C59 24.3056 60.7908 26.1415 63 26.1415H64.039V29.2296C64.039 29.9037 64.825 30.2515 65.3035 29.7891L69.0781 26.1415H85C87.2091 26.1415 89 24.3056 89 22.0408V4.10063Z" fill="url(#paint0_linear_19_13047)"/>
<path d="M89 4.10063C89 1.83592 87.2091 0 85 0H63C60.7908 0 59 1.83592 59 4.10063V22.0408C59 24.3056 60.7908 26.1415 63 26.1415H64.039V29.2296C64.039 29.9037 64.825 30.2515 65.3035 29.7891L69.0781 26.1415H85C87.2091 26.1415 89 24.3056 89 22.0408V4.10063Z" fill="url(#paint1_linear_19_13047)"/>
<path d="M74.9657 5.85912C75.0622 4.70115 74.1483 3.70801 72.9863 3.70801C71.8244 3.70801 70.9105 4.70115 71.007 5.85912L71.9844 17.5878C72.0278 18.1089 72.4635 18.5097 72.9863 18.5097C73.5092 18.5097 73.9449 18.1089 73.9883 17.5878L74.9657 5.85912Z" fill="#AB293C" fill-opacity="0.6"/>
<path d="M71.4437 21.285C71.4437 22.1365 72.134 22.8269 72.9855 22.8269C73.837 22.8269 74.5273 22.1365 74.5273 21.285C74.5273 20.4335 73.837 19.7432 72.9855 19.7432C72.134 19.7432 71.4437 20.4335 71.4437 21.285Z" fill="#AB293C" fill-opacity="0.6"/>
<path d="M75.5828 5.24242C75.6793 4.08445 74.7655 3.09131 73.6035 3.09131C72.4415 3.09131 71.5277 4.08445 71.6242 5.24242L72.6016 16.9711C72.645 17.4922 73.0806 17.893 73.6035 17.893C74.1264 17.893 74.562 17.4922 74.6055 16.9711L75.5828 5.24242Z" fill="url(#paint2_linear_19_13047)"/>
<path d="M72.0608 20.6683C72.0608 21.5198 72.7511 22.2102 73.6027 22.2102C74.4542 22.2102 75.1445 21.5198 75.1445 20.6683C75.1445 19.8168 74.4542 19.1265 73.6027 19.1265C72.7511 19.1265 72.0608 19.8168 72.0608 20.6683Z" fill="url(#paint3_linear_19_13047)"/>
</g>
<path d="M58.1931 40.0829C58.9513 42.2602 59.3888 42.7788 59.6318 44.4959C56.7122 44.4231 46.2512 46.337 43.1367 49.9705C39.2854 54.4635 44.822 56.7382 49.539 59.207C54.2559 61.6758 61.5195 63.0809 62.3716 69.4556C63.2238 75.8304 54.3164 82.0371 36.8441 85.0899L34.6917 80.1365C37.7222 79.9787 47.1518 78.8019 50.6586 75.0636C54.5974 70.8647 50.2809 66.2033 45.7585 64.0991C41.2362 61.9948 33.2749 60.0029 33.1397 53.6481C33.3486 46.1577 48.7925 41.1743 58.1931 40.0829Z" fill="#BDBDBD"/>
<path d="M54.5427 40.9459C55.2756 43.0987 55.2458 43.2029 55.4794 44.9007C50.4839 46.0455 45.808 47.0326 42.7824 50.6248C39.0411 55.0666 45.4404 58.2624 49.7179 60.5464C53.9955 62.8305 57.7569 65.5115 58.2537 69.3347C58.7505 73.1579 54.4583 81.9916 38.7049 85.4536L37.2224 80.7787C40.1623 80.6231 46.889 79.3917 50.2952 75.6959C54.1211 71.5449 50.1413 66.9412 45.7568 64.86C41.3724 62.7788 36.305 59.8545 36.2648 54.1914C36.2245 48.5282 45.4223 42.0238 54.5427 40.9459Z" fill="#D3D3D3"/>
<path d="M54.0263 39.4888C54.8448 41.644 55.0885 42.6706 55.3793 44.3803C52.4588 44.3889 45.7984 46.3854 42.7863 50.1043C39.0618 54.7029 44.7638 57.3895 49.2389 59.5751C53.714 61.7606 57.6689 64.3625 58.2933 68.2132C58.9177 72.064 54.7548 81.1184 38.6233 85.0732L36.9581 80.3899C39.983 80.1477 46.8784 78.7086 50.2796 74.874C54.0998 70.567 49.8633 66.0277 45.284 64.0503C40.7048 62.0729 35.397 59.2628 35.1888 53.5388C34.9807 47.8147 44.6597 40.8417 54.0263 39.4888Z" fill="#D3D3D3"/>
<path d="M68.0736 45.9414C63.4831 39.2321 54.9187 35.7784 46.2035 36.2596C36.1848 37.3248 24.8907 46.2251 25.0134 59.2733C25.5436 68.8753 30.0808 74.9444 38.4489 78.3273C27.3841 75.9496 19.8725 69.7964 18.2877 58.1088C17.4281 42.5415 28.3813 31.7828 42.5823 30.9986C53.4832 30.3967 63.6262 36.545 68.0736 45.9414Z" fill="#BDBDBD"/>
<path d="M69.9464 45.8373C64.8038 37.3447 56.5582 33.8688 45.9053 33.8688C33.6245 34.4932 19.2623 44.5884 18.5338 60.5117C18.5338 72.2591 23.6546 79.9673 33.6245 84.6569C20.3006 81.0117 11.5608 73.0006 10.416 58.6384C10.416 39.5928 24.4879 27.208 41.8464 27.208C55.171 27.208 65.159 34.0769 69.9464 45.8373Z" fill="#D3D3D3"/>
<path d="M70.0508 46.0456C64.9081 37.553 56.1422 33.6607 45.4893 33.6607C33.2085 34.2852 18.8463 44.3804 18.1178 60.3037C18.1178 72.0511 23.2386 79.7593 33.2085 84.4489C19.8846 80.8037 11.1448 72.7926 10 58.4304C10 39.3848 24.0719 27 41.4304 27C54.755 27 65.2634 34.2852 70.0508 46.0456Z" fill="#D3D3D3"/>
<defs>
<linearGradient id="paint0_linear_19_13047" x1="73.8515" y1="0" x2="73.8515" y2="30" gradientUnits="userSpaceOnUse">
<stop stop-color="#EF7585"/>
<stop offset="1" stop-color="#DC4459"/>
</linearGradient>
<linearGradient id="paint1_linear_19_13047" x1="74" y1="0" x2="74" y2="30" gradientUnits="userSpaceOnUse">
<stop stop-color="#FF9001"/>
<stop offset="1" stop-color="#FF8F09"/>
</linearGradient>
<linearGradient id="paint2_linear_19_13047" x1="73.6035" y1="19.1266" x2="73.6035" y2="22.2101" gradientUnits="userSpaceOnUse">
<stop stop-color="#EEEFEF"/>
<stop offset="1" stop-color="#DAE0E0"/>
</linearGradient>
<linearGradient id="paint3_linear_19_13047" x1="73.6026" y1="19.1266" x2="73.6026" y2="22.2101" gradientUnits="userSpaceOnUse">
<stop stop-color="#EEEFEF"/>
<stop offset="1" stop-color="#DAE0E0"/>
</linearGradient>
<clipPath id="clip0_19_13047">
<rect width="30" height="30" fill="white" transform="matrix(-1 0 0 1 89 0)"/>
</clipPath>
</defs>
</svg>
