<svg width="49" height="48" viewBox="0 0 49 48" fill="none" xmlns="http://www.w3.org/2000/svg">
<circle cx="24.75" cy="24" r="23.5" stroke="#DDDDDD"/>
<g clip-path="url(#clip0_2_733)">
<path d="M28.8359 14.1769H20.438C17.4387 14.1769 15.0393 16.5763 15.0393 19.5755V27.9734C15.0393 30.9727 17.4387 33.3721 20.438 33.3721H24.6369V26.1739H22.2375C21.8776 26.1739 21.6377 25.9339 21.6377 25.574V23.7745C21.6377 23.4146 21.8776 23.1746 22.2375 23.1746H24.6369V21.3751C24.6369 19.3956 25.6567 17.776 27.6362 17.776H30.0356C30.3955 17.776 30.6354 18.0159 30.6354 18.3758V20.1754C30.6354 20.5353 30.3955 20.7752 30.0356 20.7752H27.7561C27.6961 20.7752 27.6362 20.8352 27.6362 20.8952V23.1746H30.6354C30.8154 23.1746 30.9953 23.2946 31.1153 23.4146C31.2353 23.5345 31.2353 23.7745 31.1753 23.9544L29.9756 25.754C29.9156 26.0539 29.6756 26.1739 29.4357 26.1739H27.6362V33.3721H28.8359C31.8351 33.3721 34.2345 30.9727 34.2345 27.9734V19.5755C34.2345 16.5763 31.8351 14.1769 28.8359 14.1769Z" fill="#03436A"/>
</g>
<defs>
<clipPath id="clip0_2_733">
<rect width="19.1952" height="19.1952" fill="white" transform="translate(15.0393 14.1769)"/>
</clipPath>
</defs>
</svg>
