<svg width="49" height="48" viewBox="0 0 49 48" fill="none" xmlns="http://www.w3.org/2000/svg">
<circle cx="24.5" cy="24" r="23.5" stroke="#DDDDDD"/>
<path fill-rule="evenodd" clip-rule="evenodd" d="M20.0998 15.2C17.6698 15.2 15.6998 17.1699 15.6998 19.6V28.4C15.6998 30.83 17.6698 32.8 20.0998 32.8H28.8998C31.3299 32.8 33.2998 30.83 33.2998 28.4V19.6C33.2998 17.1699 31.3299 15.2 28.8998 15.2H20.0998ZM24.4998 20.8C22.7325 20.8 21.2998 22.2326 21.2998 24C21.2998 25.7672 22.7325 27.2 24.4998 27.2C26.2671 27.2 27.6998 25.7672 27.6998 24C27.6998 22.2326 26.2671 20.8 24.4998 20.8ZM19.6998 24C19.6998 21.349 21.8489 19.2 24.4998 19.2C27.1508 19.2 29.2998 21.349 29.2998 24C29.2998 26.6509 27.1508 28.8 24.4998 28.8C21.8489 28.8 19.6998 26.6509 19.6998 24ZM29.2998 17.6C28.4162 17.6 27.6998 18.3163 27.6998 19.2C27.6998 20.0836 28.4162 20.8 29.2998 20.8C30.1835 20.8 30.8998 20.0836 30.8998 19.2C30.8998 18.3163 30.1835 17.6 29.2998 17.6Z" fill="#03436A"/>
</svg>
