<svg width="49" height="49" viewBox="0 0 49 49" fill="none" xmlns="http://www.w3.org/2000/svg">
<circle cx="24.25" cy="24.2035" r="23.5" stroke="#DDDDDD"/>
<g clip-path="url(#clip0_1_467)">
<path fill-rule="evenodd" clip-rule="evenodd" d="M33.1781 28.1803L29.8964 26.2848C29.5885 26.1075 29.2228 26.0596 28.8796 26.1516C28.5364 26.2435 28.2437 26.4679 28.0657 26.7755C27.7404 27.338 27.2492 27.7935 26.5957 27.9272C26.2888 27.9943 25.971 27.9934 25.6645 27.9245C25.358 27.8557 25.0703 27.7205 24.8216 27.5286C24.092 26.9811 23.396 26.3464 22.7512 25.7019C22.1063 25.0573 21.4718 24.3624 20.9246 23.6332C20.733 23.3842 20.5981 23.0963 20.5294 22.7897C20.4607 22.4831 20.4598 22.1652 20.5269 21.8582C20.6602 21.2051 21.1166 20.7132 21.6788 20.3882C21.9858 20.21 22.2097 19.9175 22.3018 19.5746C22.3938 19.2318 22.3465 18.8665 22.17 18.5584L20.2739 15.275C20.1148 14.9956 19.8598 14.7832 19.5561 14.6772C19.2525 14.5713 18.9207 14.5788 18.6222 14.6985L18.5819 14.7143C17.9519 14.9604 16.1401 15.6285 15.6794 16.0891C15.0051 16.763 14.6954 17.6014 14.6541 18.5484C14.6079 19.6066 14.9083 20.7095 15.3018 21.6827C16.2993 24.1502 18.1722 26.544 20.0415 28.4135C21.9108 30.2829 24.3038 32.1556 26.7719 33.1532C27.6832 33.5215 28.6997 33.8038 29.6894 33.8038C29.7616 33.8038 29.8336 33.8022 29.9057 33.7992C30.8533 33.7582 31.6909 33.4477 32.3652 32.7736C32.828 32.311 33.4945 30.5034 33.7406 29.8715L33.756 29.832C33.8754 29.5334 33.8827 29.2016 33.7766 28.898C33.6704 28.5944 33.458 28.3395 33.1785 28.1803H33.1781Z" fill="#205052"/>
</g>
<defs>
<clipPath id="clip0_1_467">
<rect width="19.2" height="19.2" fill="white" transform="translate(14.6495 14.6036)"/>
</clipPath>
</defs>
</svg>
